# xmcd CD database file
#
# Track frame offsets:
#	150
#	18345
#	48667
#	74353
#	99319
#	129701
#	158663
#
# Disc length: 2443 seconds
#
# Revision: 0
# Processed by: cddbd v1.5.2PL0 Copyright (c) Steve Scherf et al.
# Submitted via: CDex 1.70beta3
#
DISCID=57098907
DTITLE=Chet Baker and Art Pepper - Playboys
DYEAR=1956
DGENRE=Jazz
TTITLE0=For Minors Only
TTITLE1=Minor Yours
TTITLE2=Resonant Emotions
TTITLE3=Tynan Time
TTITLE4=Picture Of Heath
TTITLE5=For Miles And Miles
TTITLE6=C.T.A.
EXTD=YEAR: 1956
EXTT0=
EXTT1=
EXTT2=
EXTT3=
EXTT4=
EXTT5=
EXTT6=
PLAYORDER=
